<?xml version="1.0" standalone="no"?>
<!DOCTYPE svg PUBLIC "-//W3C//DTD SVG 1.1//EN" "http://www.w3.org/Graphics/SVG/1.1/DTD/svg11.dtd" >
<svg xmlns="http://www.w3.org/2000/svg">
<metadata></metadata>
<defs>
<font id="plakatfrakturregular" horiz-adv-x="2048" >
<font-face units-per-em="2048" ascent="1638" descent="-410" />
<missing-glyph horiz-adv-x="628" />
<glyph />
<glyph />
<glyph unicode="&#xd;" />
<glyph unicode=" "  horiz-adv-x="628" />
<glyph unicode="&#x09;" horiz-adv-x="628" />
<glyph unicode="&#xa0;" horiz-adv-x="628" />
<glyph unicode="A" horiz-adv-x="1452" d="M47 825q0 115 94 219q46 52 119 113q2 2 127 103q11 1 26 2t23.5 1.5t12.5 0.5q183 0 317 -131q135 -129 135 -312q0 -152 -90 -268q-53 -67 -211 -195q-20 -14 -20 -47v-10q0 -8 2 -14l88 -88q2 -2 16 -2q66 0 184 118q119 119 119 185v477q0 22 -37 92t-37 84 q0 28 21 37l45 -4q62 0 184 45q130 47 178 47q35 0 35 -35q-106 -78 -106 -143v-830q0 -61 110 -61q0 -68 -63 -137q-3 -8 -117 -103h-10q-80 0 -135 76q-53 77 -53 176q0 29 2 31l-35 35l-82 -62q-106 -79 -119 -88q-192 -137 -260 -137q-30 0 -193 129q-163 132 -163 150 q0 10 39 43q192 3 317 94q145 109 145 286q0 148 -88.5 230t-242.5 82q-152 0 -152 -99q0 -58 92 -88q161 -52 172 -59q92 -50 92 -154q0 -78 -71 -143q-69 -63 -150 -63q-51 0 -53 2q-29 10 -29 36q0 14 45 43q47 35 47 48q0 15 -69 38q-100 37 -148 91q-53 59 -53 159z " />
<glyph unicode="D" horiz-adv-x="1378" d="M16 758q0 141 136 280q114 114 254 187q166 88 301 88q271 0 442 -174q172 -175 172 -449q0 -291 -186 -514q-200 -237 -482 -237q-89 0 -254 73q-162 76 -223 76q-22 0 -72 -12q-52 -10 -73 -10q0 86 108 165q101 76 193 76q23 0 76 -20q59 -19 81 -19q41 0 70 37t29 82 q0 63 -76 203t-76 205q0 58 6 61l201 201q2 2 2 16q0 38 -45 41h-76q-110 0 -205 -53q-116 -64 -116 -160q0 -18 37 -82q39 -62 39 -74q-13 -13 -31 -29.5t-23 -21.5l-26 -26q-66 -54 -107 -54q-76 0 -76 144zM606 223q0 -53 103 -80q83 -22 145 -22q148 0 205 112 q43 82 43 248q0 191 -70 340q-81 179 -241 236q-2 2 -15 2q-10 0 -94 -84q-6 -18 -6 -72q0 -40 67 -180q68 -142 68 -178q0 -97 -53 -168q-32 -41 -99 -92q-53 -41 -53 -62z" />
<glyph unicode="E" horiz-adv-x="1140" d="M55 647q0 220 101 400q120 215 321 215q13 0 82 -29t88 -29t96 53q79 54 91 54q18 0 213 -142q4 -16 4 -18q0 -13 -82 -68t-101 -55q-13 0 -88 35q-70 37 -96 37q-42 0 -52.5 -9t-10.5 -47q0 -63 34 -147q40 -100 93 -100l16 2l104 88h37q11 -7 96 -60q82 -49 82 -55 q0 -42 -67 -88q-65 -45 -111 -45q-37 0 -37 16l6 21q2 6 3.5 12t2.5 8.5t1 3.5q-4 1 -20 4t-27 5q-43 -26 -64 -127q-28 -135 -92 -187q-60 -51 -199 -57l-2 -19q0 -42 86 -69q65 -19 119 -19q158 0 274 72q23 23 91 70l18 -37q0 -29 -107 -166q-106 -137 -143 -168h-98 q-6 -2 -25 -2q-301 0 -469 174t-168 473zM283 971q2 9 2 0v-17v-112q0 -194 10 -262q24 -152 113 -226v66l20 2h23q32 0 32 -25q0 -12 -4 -24q45 6 76 35.5t31 70.5l-72 131q-10 17 -19.5 33.5t-16.5 29.5t-9 17q-61 125 -61 228q0 132 143 233q-18 37 -51 37 q-140 0 -201 -135q-13 -26 -16 -82z" />
<glyph unicode="F" horiz-adv-x="1224" d="M72 817q5 12 13.5 33.5t12.5 30.5q187 417 670 417q101 0 229 -41q117 -39 172 -47l48 -8q34 -8 34 -38q0 -41 -82 -152q-79 -107 -108 -107h-2q-30 3 -94 43q-60 38 -93 45h-6q-58 0 -90 -53q-28 -48 -31 -111v-12q0 -47 19 -133q27 -114 61 -117q9 0 66 51q56 50 72 50 h2q49 -3 122 -39q87 -40 87 -74q0 -30 -68 -88q-59 -53 -89 -53h-3q-35 4 -88 14q-36 8 -60 8q-1 -8 -1 -19q0 -32 9 -89q9 -72 9 -99v-8q-15 -191 -197 -323q-159 -115 -327 -115q-20 0 -40 2q-87 6 -104 10q-53 19 -95 69q-38 46 -38 90v9l4 19q147 147 193 147h2 q33 -48 73 -143q50 -83 115 -86q5 0 10 -1q57 0 99 44q44 47 47 116v5q0 57 -60 255l-84 275l2 35v16q0 111 76 211q37 49 148 148l2 34q3 20 -142 29q-21 2 -41 2q-127 0 -221 -65q-122 -81 -131 -228l-2 -26v-25q0 -112 45 -115l158 -10q21 -3 18 -35q-3 -58 -33 -73 q-17 -10 -60 -10q-11 0 -24 1q-115 6 -170 119q-36 73 -36 172q0 21 2 43z" />
<glyph unicode="H" horiz-adv-x="1226" d="M41 133q0 43 28 80t68 37q49 0 70 -47q5 -18 10.5 -38t8 -30l3.5 -14q20 -51 56 -51q73 0 73 102q0 71 -116 260q-115 195 -115 273q0 124 88 231q48 59 193 170q140 107 192 174h18q2 2 19 2q13 0 123 -29q88 -26 129 -26q14 0 58.5 11t56.5 11v-57l-191 -193 q-4 -2 -25 -2q-38 0 -126 27q-102 29 -123 29q-83 0 -134 -60t-51 -149q0 -176 64 -176q54 0 217 114q155 109 194 166q183 -132 238 -190q115 -118 115 -271q0 -134 -54 -231q-42 -73 -153 -184q-9 -6 -82 -76l-221 -205h-17q-28 0 -106 37q-81 35 -109 35q-41 0 -75 -17 q-19 -12 -60 -55l-20 19v8q0 88 94 164q93 75 186 75q109 0 176 -55q195 171 195 342q0 120 -72 213q-70 94 -190 94q-178 0 -178 -82q0 -27 34 -114q37 -84 37 -121q0 -137 -98 -244q-93 -106 -233 -106q-195 0 -195 149z" />
<glyph unicode="L" horiz-adv-x="1120" d="M59 0q0 123 66 195q41 44 268 116q70 37 70 105v26q-187 170 -246 246q-74 95 -74 211q0 163 129 283q130 121 293 121q418 0 418 -304q0 -109 -27 -149q-34 -51 -137 -51q-137 0 -137 125q0 10 2 16l141 127q1 4 2 8.5t1.5 7t0.5 4.5q0 123 -208 123q-237 0 -234 -200 q3 -107 109 -222l51 -53q58 -62 129 -133q0 -23 2 -41v-39q0 -32 -47 -121q-45 -86 -45 -102q0 -96 252 -96q42 0 133 55q89 57 135 57q0 -131 -84 -241q-88 -117 -219 -117q-85 0 -256 80t-250 80q-69 0 -119 -56q-32 -34 -56 -47.5t-63 -13.5z" />
<glyph unicode="O" horiz-adv-x="1456" d="M57 653q0 216 136 414q151 219 360 219h65q2 -2 13 -2h84q14 5 28 14q111 66 170 66q0 -61 54 -96q11 -7 114 -45q104 -38 115 -47q201 -154 201 -488q0 -286 -195 -487t-479 -201q-289 0 -477 182q-189 183 -189 471zM332 670q0 -238 90 -391q111 -187 334 -187 q189 0 303 123q117 126 117 315q0 232 -72 322q-55 72 -277 176q8 0 -32 25l-19 12q-58 37 -94 37q-55 0 -55 -92q172 -145 237 -226q74 -95 74 -188q0 -95 -109 -201q-107 -104 -204 -104q-93 0 -93 67q0 29 21 29h147q41 0 41 88q0 27 -4 39l-239 238q-37 37 -37 141 q0 66 63 166l68 106q0 29 -39 29q-34 0 -55 -18q-106 -84 -144 -230q-22 -93 -22 -276z" />
<glyph unicode="S" horiz-adv-x="1275" d="M49 498v266q0 145 193 289q69 52 155 100q122 64 164 88q125 107 156 107q-23 0 -23 -5q0 -11 125 -51q174 -53 203 -53q18 0 82 12q70 13 78 13q0 -73 -103 -150l-49 -31q-44 -26 -115 -71h-4q-2 -2 -4 -2q-45 0 -135 43q-132 63 -182 63q-162 0 -264 -108 q-101 -107 -101 -273q0 -205 203 -319q174 -97 391 -97q103 0 103 -2q45 9 65 15q111 52 111 145q0 127 -127 127q8 0 -3 -3q-33 -8 -155 -26l-172 -26q-110 0 -175 64.5t-65 174.5q0 91 43 152q51 72 136 72q46 0 104 -21q74 -24 74 -61q0 -14 -19 -27h-141q-10 0 -37 -35 v-16l19 -18q9 0 30 -3h31q44 0 137 19q97 20 137 20q137 0 220 -92q84 -90 84 -227q0 -156 -144 -291l-160 -154l-47 -65q-27 -41 -63 -41q-228 0 -473 133q-283 154 -283 365z" />
<glyph unicode="T" horiz-adv-x="1224" d="M49 874q0 225 197 369q177 131 409 131q72 0 211 -37q144 -39 213 -39q11 0 68 11q52 10 65 10q0 -64 -57 -139q-53 -70 -108 -113q-2 -2 -74 -2q-17 0 -69.5 10t-65.5 10q-15 0 -27 -18v-129l59 -102q12 -23 37 -69t29 -54q20 -47 20 -119q0 -85 -59 -168 q-63 -75 -123 -139q15 -37 137 -37q28 0 140 59q114 60 127 60q0 -85 -93 -201q-111 -135 -129 -188h-10q-71 0 -102 2q-52 3 -137 26q-41 10 -132 43q-71 41 -102 58q-100 53 -160 53q-12 0 -75 -29q-58 -27 -78 -27l-19 19v8q0 81 123 158q109 69 199 69q31 0 49 -2l68 -6 q70 -6 116 -6v14q0 25 2 43l4 60q3 16 -63 162q-66 147 -66 188q0 137 148 270q4 20 4 27q0 44 -131 68q-71 14 -166 14q-102 0 -186 -78t-84 -176q0 -83 65 -107l123 -32q68 -18 68 -97q0 -108 -109 -108q-116 0 -188 84q-68 77 -68 196z" />
<glyph unicode="U" horiz-adv-x="1216" d="M66 141q0 9 98 103t98 143l2 520q0 62 -141 176q-2 2 -2 54q0 74 43 129q1 1 12.5 13.5t22.5 23.5l65 65q18 -54 117 -139q23 -21 54.5 -48.5t37.5 -33.5q53 -56 53 -137l2 -498q0 -38 -100 -131q-82 -78 -96 -100q0 -41 88 -68q80 -23 123 -23q94 0 164 70q69 69 69 164 l2 659q0 49 -55 107q86 86 102 100q84 78 105 78h6l178 -178v-8q0 -5 -29 -74q-26 -62 -26 -72v-790q0 -27 20 -33q43 0 49 -2q21 -6 21 -37q-143 -192 -231 -192q-160 103 -160 241v6l-92 -94q-44 -44 -121 -98q-83 -57 -139 -57q-62 0 -127 26l-211 117q-2 6 -2 18z" />
<glyph unicode="a" horiz-adv-x="880" d="M61 442q0 131 17 201q21 86 108 164q26 19 70 55q94 80 109 94l71 72q0 2 13 2l180 -90q14 -3 35 -9t26 -7q55 -16 64 -37v-19q-2 -5 -37 -88v-477q0 -24 53 -59q55 -34 55 -56v-6l-153 -178q-12 -4 -33 -4q-47 0 -84 43q-15 30 -35 57q-44 62 -67 62h-17 q-48 -51 -90 -107q-24 -55 -59 -55q-226 0 -226 442zM291 512q0 -156 10 -201q15 -63 90 -63q59 0 62 18q12 165 16 320q3 9 6 30l6 46q8 47 8 75q0 31 -57 54q-56 26 -86 26q-44 0 -53 -92q-2 -6 -2 -127v-86z" />
<glyph unicode="d" horiz-adv-x="800" d="M72 1108q0 54 28 96q14 12 30.5 27.5t28 26t19.5 16.5h12q2 2 15 2q29 0 74 -51q54 -66 61 -74q26 -30 223 -164q128 -90 168 -190q33 -79 33 -258q0 -217 -96 -310l-240 -229h-37q-41 23 -65 35l-111 53l-72 14q-53 9 -53 37v21q0 9 8 44t8 44v514q0 9 64 55 q63 45 63 68q0 15 -81 96q-80 86 -80 127zM356 301q0 -16 142 -72h8q23 3 29 52v110q0 418 -179 418v-508z" />
<glyph unicode="e" horiz-adv-x="696" d="M61 229v371q0 125 136 234l219 174h8q61 0 133 -97t72 -161q0 -96 -78 -177q-80 -75 -150 -129q-77 -68 -77 -125q0 -90 118 -90q28 0 101 31t102 31v-43l-156 -189q-42 -50 -65 -57q-21 -6 -80 -6q-108 0 -190 61q-93 69 -93 172zM291 477q0 -3 18 -18h8q48 0 82 55 q35 56 35 104q0 36 -43 97q-40 63 -74 63q-17 0 -26 -18v-283z" />
<glyph unicode="f" horiz-adv-x="518" d="M31 815q40 43 55 172q20 185 51 234q34 51 121 51q32 0 123 -15q93 -15 104 -40v-7q0 -68 -30 -120q-41 -66 -99 -66q-19 0 -71 8q-43 6 -70 6q0 -64 92 -94q141 -40 144 -41q34 -21 34 -51q0 -29 -55 -53q-63 -28 -68 -35q5 -35 5 -68v-116q0 -144 2 -144 q-19 -132 -37 -221l-56 -342q-18 -109 -53 -109q-37 0 -37 35q2 6 2 21q-1 8 -16 121l-37 235q-18 121 -24 293q-10 244 -11 295q-29 39 -69 51z" />
<glyph unicode="h" horiz-adv-x="813" d="M25 1186q9 18 36 18q8 0 66 -28q64 -27 76 -27q16 0 18 2q48 68 80 94q52 43 113 43q55 0 55 -49q0 -9 -31 -45t-65 -160q-33 -115 -33 -176v-4q119 60 182 137h13q4 0 6 2h6q97 0 168 -213q55 -168 55 -303q0 -259 -145 -489q-164 -256 -416 -256q-78 0 -96 18 q0 13 -2 23v22q0 68 39 80q23 -2 51 -2h8q188 0 258 125q55 94 55 301q0 177 -12 250q-27 158 -113 211l-53 -23v-495q0 -4 35 -39q37 -30 37 -41q0 -26 -70 -96q-50 -53 -90 -84q-53 46 -164 127q-51 36 -51 51q0 36 55 88v762q0 55 -71 176z" />
<glyph unicode="l" horiz-adv-x="507" d="M57 1171q19 0 60 -20q44 -21 59 -21q6 0 12 3h15q98 104 100 106q65 53 131 53q19 -13 19 -26q0 10 -4 10q-12 0 -41 -57q-43 -82 -46 -105q-18 -445 -18 -672v-82q0 -53 29 -90l45 -34q37 -27 37 -41l-4 -19q-73 -93 -84 -108q-65 -68 -109 -68h-2q-170 128 -195 160v16 q0 3 1.5 11t4.5 24.5t5 32.5q26 147 26 391q0 368 -20 444q0 3 -10.5 31.5t-10.5 60.5z" />
<glyph unicode="o" horiz-adv-x="811" d="M78 143v512q0 68 39 97q40 33 120.5 98.5t108.5 89.5q107 88 117 88q133 0 209 -190q59 -148 59 -297q0 -153 -65 -248q-27 -39 -103 -115q-20 -17 -57.5 -53t-56.5 -53q-47 -72 -80 -72q-38 0 -291 143zM307 303q0 -19 142 -72h2q6 0 6 -2l8 7q18 6 18 16q2 2 2 37v160 q0 167 -22 235q-18 52 -103 131l-18 2q-35 0 -35 -20v-494z" />
<glyph unicode="s" horiz-adv-x="907" d="M59 586q0 100 129 256q128 155 228 155q26 0 96 -30q76 -29 104 -29q14 0 66 12q57 13 61 13q0 -93 -86 -164q-86 -68 -182 -68q-69 0 -174 57h-4q-31 0 -31 -69q0 -57 34.5 -98t88.5 -41q31 0 135 67q107 70 121 70q90 0 143 -96q48 -82 48 -177q0 -121 -43 -182 q-27 -41 -131 -131q-139 -154 -213 -154q-38 0 -117 39q-84 41 -111 41q-46 0 -121 -57q-17 14 -20 20q0 17 39 70q46 63 53 70q75 84 184 84q36 0 115 -31q82 -29 98 -29q58 0 58 115q0 78 -46 124t-124 46q-19 0 -113 -66q-107 -78 -113 -84h-8q-2 -2 -10 -2 q-71 0 -117 105q-37 81 -37 164z" />
<glyph unicode="t" horiz-adv-x="507" d="M37 821q0 26 37 60q36 33 39 59l14 84q15 98 117 178q103 80 205 80q0 -18 -39 -74q-37 -70 -37 -78v-210q0 -5 37 -23q36 -17 36 -29q0 -41 -73 -108v-496q76 -52 76 -88v2l-5 -18l-159 -160h-54l-159 160v14q7 0 22 92q17 122 17 252v223q-2 6 -2 19l-15 10 q-57 37 -57 51z" />
<glyph unicode="u" horiz-adv-x="929" d="M66 813q0 58 57 109q58 55 115 55q60 0 104 -68q45 -62 45 -129v-461q0 -27 20 -58.5t42 -31.5q32 0 79 56q17 236 17 258q0 41 -27 143q-29 116 -29 148q0 13 52 59l69 59q34 30 41 39h17l69 -69q4 -4 25 -19q84 -66 84 -88q-41 -61 -53 -88v-461q0 -13 36 -39 q37 -27 37 -41v-8q0 -10 -2 -16l-159 -160l-17 -2q-58 0 -88 43q-18 35 -33 61q-30 58 -53 58t-119 -78q-118 -100 -129 -100q-20 0 -164 178v35q25 62 37 88v442q-73 55 -73 86z" />
<glyph unicode="&#xc4;" horiz-adv-x="1452" d="M47 825q0 115 94 219q46 52 119 113q2 2 127 103q11 1 26 2t23.5 1.5t12.5 0.5q183 0 317 -131q135 -129 135 -312q0 -152 -90 -268q-53 -67 -211 -195q-20 -14 -20 -47v-10q0 -8 2 -14l88 -88q2 -2 16 -2q66 0 184 118q119 119 119 185v477q0 22 -37 92t-37 84 q0 28 21 37l45 -4q62 0 184 45q130 47 178 47q35 0 35 -35q-106 -78 -106 -143v-830q0 -61 110 -61q0 -68 -63 -137q-3 -8 -117 -103h-10q-80 0 -135 76q-53 77 -53 176q0 29 2 31l-35 35l-82 -62q-106 -79 -119 -88q-192 -137 -260 -137q-30 0 -193 129q-163 132 -163 150 q0 10 39 43q192 3 317 94q145 109 145 286q0 148 -88.5 230t-242.5 82q-152 0 -152 -99q0 -58 92 -88q161 -52 172 -59q92 -50 92 -154q0 -78 -71 -143q-69 -63 -150 -63q-51 0 -53 2q-29 10 -29 36q0 14 45 43q47 35 47 48q0 15 -69 38q-100 37 -148 91q-53 59 -53 159z M643 1493q0 53 39 90t94 37q41 0 73 -41.5t32 -87.5q0 -59 -56 -115q-55 -55 -116 -55q-31 0 -52 72q-14 52 -14 100zM977 1493q0 53 39 90t94 37q40 0 73.5 -42.5t33.5 -86.5q0 -57 -58 -115q-55 -55 -115 -55q-35 0 -53 74q-14 55 -14 98z" />
<glyph unicode="&#xc6;" horiz-adv-x="1777" d="M39 825q0 115 82 219q68 85 207 216q10 1 23 2l19.5 1.5t10.5 0.5q163 0 278 -142q107 -131 107 -301q0 -152 -78 -268q-38 -55 -178 -195q-18 -18 -18 -47q0 -6 2 -8l2 -16l73 -88q2 -2 15 -2q54 0 155 122t101 181v477q0 23 -31 90t-31 86q0 27 17 37l30 -2l9 -2 q33 0 84 31q57 37 79 43l7 4l20 8l43 12q8 0 8 -8q14 -24 19 -47q52 24 102 24q18 0 72 -28q56 -29 71 -29q17 0 82 53q66 54 78 54q15 0 180 -142q4 -16 4 -18q0 -11 -69 -68q-67 -55 -84 -55q-16 0 -80 37t-78 37q-36 0 -45.5 -10.5t-9.5 -47.5q0 -54 29 -143 q34 -105 79 -105l15 3l90 88h31q6 -3 17.5 -12t16.5 -13l47 -35q68 -50 68 -55q0 -40 -55 -86q-53 -47 -94 -47q-31 0 -31 16l6 21q1 6 2 11.5t1.5 8.5t0.5 4q-14 4 -41 10q-40 -34 -55 -129q-20 -122 -70 -178q-53 -59 -176 -65l-2 -19q0 -43 70 -67q58 -21 104 -21 q137 0 234 72q30 37 75 72l17 -39q0 -27 -92 -166q-94 -143 -119 -168h-53q-25 0 -31 -2h-23q-154 0 -278 74q-18 -37 -78 -97h-8q-81 0 -125 90q-35 72 -35 162v31l-29 35q-88 -77 -170 -150q-162 -137 -221 -137q-25 0 -164 127q-139 130 -139 152q0 14 33 43 q171 3 280 106q113 104 113 274q0 142 -75 227t-208 85q-127 0 -127 -99q0 -57 78 -88q138 -54 146 -59q78 -50 78 -154q0 -74 -58 -141q-59 -65 -129 -65q-69 0 -69 38q0 21 38 46q39 26 39 45q0 11 -61 38q-170 71 -170 250zM1042 961l11 -123q1 -12 2 -35.5t2 -32.5 q1 -24 7 -120t9 -142q9 -107 64 -162v66q4 0 18.5 2t18.5 2q28 0 28 -27v-6l-4 -16q35 4 59.5 43.5t24.5 83.5l-92 188q-74 151 -74 207q0 137 141 254q-12 37 -40 37q-72 0 -97 -19q-39 -23 -67 -121q-13 -52 -11 -79z" />
<glyph unicode="&#xe4;" horiz-adv-x="880" d="M61 442q0 131 17 201q21 86 108 164q26 19 70 55q94 80 109 94l71 72q0 2 13 2l180 -90q14 -3 35 -9t26 -7q55 -16 64 -37v-19q-2 -5 -37 -88v-477q0 -24 53 -59q55 -34 55 -56v-6l-153 -178q-12 -4 -33 -4q-47 0 -84 43q-15 30 -35 57q-44 62 -67 62h-17 q-48 -51 -90 -107q-24 -55 -59 -55q-226 0 -226 442zM201 1212q0 47 35 81t83 34q37 0 67 -37.5t30 -79.5q0 -53 -51 -104q-52 -49 -105 -49q-29 0 -47 65q-12 46 -12 90zM291 512q0 -156 10 -201q15 -63 90 -63q59 0 62 18q12 165 16 320q3 9 6 30l6 46q8 47 8 75 q0 31 -57 54q-56 26 -86 26q-44 0 -53 -92q-2 -6 -2 -127v-86zM504 1212q0 47 36.5 81t84.5 34q36 0 66 -38.5t30 -78.5q0 -49 -53 -102q-51 -51 -103 -51q-29 0 -47 65q-14 49 -14 90z" />
<glyph unicode="&#xe6;" horiz-adv-x="1069" d="M61 442q0 131 17 201q21 86 108 164q26 19 70 55q94 80 109 94l71 72q0 2 13 2l180 -90q15 -4 35 -10.5t32.5 -10t20.5 -6.5l123 99h8q62 0 133 -99q72 -97 72 -161q0 -93 -78 -177l-62 -51q-65 -54 -88 -75q-77 -71 -77 -125q0 -93 118 -93q20 0 99 31q73 33 104 33v-45 l-154 -187q-41 -49 -69 -59q-28 -4 -78 -4q-44 0 -90 12l-6 -8q-12 -4 -33 -4q-47 0 -84 43q-15 30 -35 57q-44 62 -67 62h-17q-48 -51 -90 -107q-24 -55 -59 -55q-226 0 -226 442zM291 512q0 -156 10 -201q15 -63 90 -63q59 0 62 18q12 165 16 320q3 9 6 30l6 46q8 47 8 75 q0 31 -57 54q-56 26 -86 26q-44 0 -53 -92q-2 -6 -2 -127v-86zM717 477q5 -5 11 -9l5 -5h8q47 0 84 57q33 50 33 101q0 34 -43 98q-40 63 -74 63q-14 -3 -24 -16v-289z" />
<glyph unicode="&#x2000;" horiz-adv-x="810" />
<glyph unicode="&#x2001;" horiz-adv-x="1620" />
<glyph unicode="&#x2002;" horiz-adv-x="810" />
<glyph unicode="&#x2003;" horiz-adv-x="1620" />
<glyph unicode="&#x2004;" horiz-adv-x="540" />
<glyph unicode="&#x2005;" horiz-adv-x="405" />
<glyph unicode="&#x2006;" horiz-adv-x="270" />
<glyph unicode="&#x2007;" horiz-adv-x="270" />
<glyph unicode="&#x2008;" horiz-adv-x="202" />
<glyph unicode="&#x2009;" horiz-adv-x="324" />
<glyph unicode="&#x200a;" horiz-adv-x="90" />
<glyph unicode="&#x202f;" horiz-adv-x="324" />
<glyph unicode="&#x205f;" horiz-adv-x="405" />
<glyph unicode="&#xe000;" horiz-adv-x="983" d="M0 0v983h983v-983h-983z" />
</font>
</defs>
</svg>
